<svg width="1200" height="675" viewBox="0 0 1200 675" fill="none" xmlns="http://www.w3.org/2000/svg">
  <rect width="1200" height="675" rx="8" fill="#f8f8f8" />
  <rect x="20" y="20" width="1160" height="60" rx="4" fill="#e0e0e0" />
  <rect x="40" y="40" width="120" height="20" rx="4" fill="#a0a0a0" />
  <rect x="900" y="40" width="80" height="20" rx="4" fill="#a0a0a0" />
  <rect x="1000" y="40" width="80" height="20" rx="4" fill="#a0a0a0" />
  <rect x="1100" y="40" width="60" height="20" rx="4" fill="#6366f1" />
  
  <rect x="20" y="100" width="240" height="555" rx="4" fill="#e0e0e0" />
  <rect x="40" y="120" width="200" height="20" rx="4" fill="#a0a0a0" />
  <rect x="40" y="160" width="180" height="20" rx="4" fill="#a0a0a0" />
  <rect x="40" y="200" width="180" height="20" rx="4" fill="#a0a0a0" />
  <rect x="40" y="240" width="180" height="20" rx="4" fill="#a0a0a0" />
  <rect x="40" y="300" width="100" height="20" rx="4" fill="#a0a0a0" />
  <rect x="40" y="340" width="180" height="20" rx="4" fill="#a0a0a0" />
  <rect x="40" y="380" width="180" height="20" rx="4" fill="#a0a0a0" />
  <rect x="40" y="420" width="180" height="20" rx="4" fill="#a0a0a0" />
  <rect x="40" y="460" width="180" height="20" rx="4" fill="#a0a0a0" />
  <rect x="40" y="520" width="180" height="20" rx="4" fill="#a0a0a0" />
  <rect x="40" y="560" width="180" height="20" rx="4" fill="#a0a0a0" />
  <rect x="40" y="600" width="180" height="20" rx="4" fill="#a0a0a0" />

  <rect x="280" y="100" width="900" height="555" rx="8" fill="#f0f0f0" />
  <rect x="300" y="120" width="200" height="30" rx="4" fill="#d0d0d0" />
  
  <rect x="300" y="170" width="860" height="40" rx="4" fill="#e0e0e0" />
  <rect x="320" y="180" width="300" height="20" rx="4" fill="#a0a0a0" />
  <rect x="1040" y="180" width="100" height="20" rx="4" fill="#6366f1" />
  
  <rect x="300" y="230" width="270" height="190" rx="4" fill="#e0e0e0" />
  <rect x="590" y="230" width="270" height="190" rx="4" fill="#e0e0e0" />
  <rect x="880" y="230" width="270" height="190" rx="4" fill="#e0e0e0" />
  
  <rect x="300" y="440" width="270" height="190" rx="4" fill="#e0e0e0" />
  <rect x="590" y="440" width="270" height="190" rx="4" fill="#e0e0e0" />
  <rect x="880" y="440" width="270" height="190" rx="4" fill="#e0e0e0" />
  
  <rect x="320" y="250" width="230" height="120" rx="4" fill="#d0d0d0" />
  <rect x="610" y="250" width="230" height="120" rx="4" fill="#d0d0d0" />
  <rect x="900" y="250" width="230" height="120" rx="4" fill="#d0d0d0" />
  <rect x="320" y="460" width="230" height="120" rx="4" fill="#d0d0d0" />
  <rect x="610" y="460" width="230" height="120" rx="4" fill="#d0d0d0" />
  <rect x="900" y="460" width="230" height="120" rx="4" fill="#d0d0d0" />
  
  <rect x="320" y="380" width="150" height="20" rx="4" fill="#a0a0a0" />
  <rect x="610" y="380" width="150" height="20" rx="4" fill="#a0a0a0" />
  <rect x="900" y="380" width="150" height="20" rx="4" fill="#a0a0a0" />
  <rect x="320" y="590" width="150" height="20" rx="4" fill="#a0a0a0" />
  <rect x="610" y="590" width="150" height="20" rx="4" fill="#a0a0a0" />
  <rect x="900" y="590" width="150" height="20" rx="4" fill="#a0a0a0" />
</svg>