<svg width="1200" height="675" viewBox="0 0 1200 675" fill="none" xmlns="http://www.w3.org/2000/svg">
  <rect width="1200" height="675" rx="8" fill="#f8f8f8" />
  
  <!-- Sidebar -->
  <rect x="20" y="20" width="260" height="635" rx="8" fill="#e0e0e0" />
  <rect x="40" y="40" width="220" height="40" rx="4" fill="#d0d0d0" />
  <rect x="40" y="100" width="220" height="30" rx="4" fill="#a0a0a0" />
  <rect x="40" y="140" width="180" height="30" rx="4" fill="#a0a0a0" />
  <rect x="40" y="180" width="200" height="30" rx="4" fill="#a0a0a0" />
  <rect x="40" y="220" width="160" height="30" rx="4" fill="#a0a0a0" />
  <rect x="40" y="280" width="120" height="24" rx="4" fill="#a0a0a0" />
  <rect x="40" y="320" width="180" height="30" rx="4" fill="#a0a0a0" />
  <rect x="40" y="360" width="190" height="30" rx="4" fill="#a0a0a0" />
  <rect x="40" y="400" width="150" height="30" rx="4" fill="#a0a0a0" />
  <rect x="40" y="480" width="220" height="120" rx="4" fill="#d0d0d0" />
  
  <!-- Main Content -->
  <rect x="300" y="20" width="880" height="635" rx="8" fill="#f0f0f0" />
  
  <!-- Header -->
  <rect x="320" y="40" width="300" height="40" rx="4" fill="#d0d0d0" />
  <rect x="940" y="40" width="110" height="40" rx="4" fill="#6366f1" />
  <rect x="1060" y="40" width="100" height="40" rx="4" fill="#d0d0d0" />
  
  <!-- File Grid -->
  <rect x="320" y="100" width="840" height="535" rx="4" fill="#ffffff" />
  
  <!-- Files -->
  <rect x="340" y="120" width="180" height="200" rx="4" fill="#e0e0e0" />
  <rect x="540" y="120" width="180" height="200" rx="4" fill="#e0e0e0" />
  <rect x="740" y="120" width="180" height="200" rx="4" fill="#e0e0e0" />
  <rect x="940" y="120" width="180" height="200" rx="4" fill="#e0e0e0" />
  
  <rect x="340" y="340" width="180" height="200" rx="4" fill="#e0e0e0" />
  <rect x="540" y="340" width="180" height="200" rx="4" fill="#e0e0e0" />
  <rect x="740" y="340" width="180" height="200" rx="4" fill="#e0e0e0" />
  <rect x="940" y="340" width="180" height="200" rx="4" fill="#e0e0e0" />
  
  <!-- File Thumbnails -->
  <rect x="360" y="140" width="140" height="120" rx="4" fill="#d0d0d0" />
  <rect x="560" y="140" width="140" height="120" rx="4" fill="#d0d0d0" />
  <rect x="760" y="140" width="140" height="120" rx="4" fill="#d0d0d0" />
  <rect x="960" y="140" width="140" height="120" rx="4" fill="#d0d0d0" />
  
  <rect x="360" y="360" width="140" height="120" rx="4" fill="#d0d0d0" />
  <rect x="560" y="360" width="140" height="120" rx="4" fill="#d0d0d0" />
  <rect x="760" y="360" width="140" height="120" rx="4" fill="#d0d0d0" />
  <rect x="960" y="360" width="140" height="120" rx="4" fill="#d0d0d0" />
  
  <!-- File Names -->
  <rect x="360" y="270" width="100" height="20" rx="4" fill="#a0a0a0" />
  <rect x="560" y="270" width="100" height="20" rx="4" fill="#a0a0a0" />
  <rect x="760" y="270" width="100" height="20" rx="4" fill="#a0a0a0" />
  <rect x="960" y="270" width="100" height="20" rx="4" fill="#a0a0a0" />
  
  <rect x="360" y="490" width="100" height="20" rx="4" fill="#a0a0a0" />
  <rect x="560" y="490" width="100" height="20" rx="4" fill="#a0a0a0" />
  <rect x="760" y="490" width="100" height="20" rx="4" fill="#a0a0a0" />
  <rect x="960" y="490" width="100" height="20" rx="4" fill="#a0a0a0" />
  
  <!-- File Metadata -->
  <rect x="360" y="295" width="70" height="15" rx="4" fill="#c0c0c0" />
  <rect x="560" y="295" width="70" height="15" rx="4" fill="#c0c0c0" />
  <rect x="760" y="295" width="70" height="15" rx="4" fill="#c0c0c0" />
  <rect x="960" y="295" width="70" height="15" rx="4" fill="#c0c0c0" />
  
  <rect x="360" y="515" width="70" height="15" rx="4" fill="#c0c0c0" />
  <rect x="560" y="515" width="70" height="15" rx="4" fill="#c0c0c0" />
  <rect x="760" y="515" width="70" height="15" rx="4" fill="#c0c0c0" />
  <rect x="960" y="515" width="70" height="15" rx="4" fill="#c0c0c0" />
</svg>