<svg width="1200" height="675" viewBox="0 0 1200 675" fill="none" xmlns="http://www.w3.org/2000/svg">
  <rect width="1200" height="675" rx="8" fill="#f8f8f8" />
  
  <!-- Security Card -->
  <rect x="100" y="50" width="1000" height="575" rx="12" fill="#ffffff" />
  <rect x="100" y="50" width="1000" height="575" rx="12" stroke="#e0e0e0" stroke-width="2" />
  
  <!-- Header -->
  <rect x="140" y="90" width="400" height="60" rx="8" fill="#f8f8f8" />
  <rect x="160" y="110" width="320" height="20" rx="4" fill="#a0a0a0" />
  
  <!-- 2FA Setup -->
  <rect x="140" y="180" width="920" height="200" rx="8" fill="#f0f0f0" />
  
  <!-- QR Code -->
  <rect x="180" y="220" width="160" height="160" rx="8" fill="#d0d0d0" />
  <rect x="200" y="240" width="120" height="120" rx="4" fill="#a0a0a0" />
  <line x1="230" y1="240" x2="230" y2="360" stroke="#ffffff" stroke-width="2" />
  <line x1="260" y1="240" x2="260" y2="360" stroke="#ffffff" stroke-width="2" />
  <line x1="290" y1="240" x2="290" y2="360" stroke="#ffffff" stroke-width="2" />
  <line x1="200" y1="270" x2="320" y2="270" stroke="#ffffff" stroke-width="2" />
  <line x1="200" y1="300" x2="320" y2="300" stroke="#ffffff" stroke-width="2" />
  <line x1="200" y1="330" x2="320" y2="330" stroke="#ffffff" stroke-width="2" />
  
  <!-- Verification Input -->
  <rect x="380" y="220" width="660" height="160" rx="8" fill="#ffffff" />
  <rect x="420" y="240" width="580" height="40" rx="4" fill="#f0f0f0" />
  <rect x="440" y="250" width="200" height="20" rx="4" fill="#a0a0a0" />
  
  <rect x="420" y="300" width="580" height="60" rx="4" fill="#f0f0f0" />
  
  <rect x="442" y="315" width="30" height="30" rx="4" fill="#ffffff" stroke="#d0d0d0" stroke-width="2" />
  <rect x="487" y="315" width="30" height="30" rx="4" fill="#ffffff" stroke="#d0d0d0" stroke-width="2" />
  <rect x="532" y="315" width="30" height="30" rx="4" fill="#ffffff" stroke="#d0d0d0" stroke-width="2" />
  <rect x="577" y="315" width="30" height="30" rx="4" fill="#ffffff" stroke="#d0d0d0" stroke-width="2" />
  <rect x="622" y="315" width="30" height="30" rx="4" fill="#ffffff" stroke="#d0d0d0" stroke-width="2" />
  <rect x="667" y="315" width="30" height="30" rx="4" fill="#ffffff" stroke="#d0d0d0" stroke-width="2" />
  
  <rect x="720" y="310" width="100" height="40" rx="4" fill="#6366f1" />
  <rect x="740" y="325" width="60" height="10" rx="2" fill="#ffffff" />
  
  <!-- Security Features -->
  <rect x="140" y="400" width="450" height="200" rx="8" fill="#f0f0f0" />
  <rect x="160" y="420" width="300" height="30" rx="4" fill="#d0d0d0" />
  
  <rect x="160" y="470" width="410" height="40" rx="4" fill="#ffffff" />
  <rect x="180" y="485" width="150" height="10" rx="2" fill="#a0a0a0" />
  <rect x="500" y="475" width="30" height="30" rx="15" fill="#d0d0d0" />
  
  <rect x="160" y="525" width="410" height="40" rx="4" fill="#ffffff" />
  <rect x="180" y="540" width="130" height="10" rx="2" fill="#a0a0a0" />
  <rect x="500" y="530" width="30" height="30" rx="15" fill="#6366f1" />
  
  <!-- Security Status -->
  <rect x="610" y="400" width="450" height="200" rx="8" fill="#f0f0f0" />
  <rect x="630" y="420" width="330" height="30" rx="4" fill="#d0d0d0" />
  
  <rect x="630" y="470" width="410" height="100" rx="4" fill="#ffffff" />
  
  <!-- Chart -->
  <rect x="650" y="490" width="370" height="60" rx="4" fill="#f8f8f8" />
  <rect x="670" y="510" width="150" height="20" rx="4" fill="#6366f1" />
  <rect x="670" y="540" width="330" height="3" rx="1.5" fill="#e0e0e0" />
  <rect x="670" y="540" width="150" height="3" rx="1.5" fill="#6366f1" />
  <rect x="650" y="500" width="15" height="12" rx="2" fill="#a0a0a0" />
  <rect x="650" y="520" width="15" height="12" rx="2" fill="#a0a0a0" />
  <rect x="650" y="540" width="15" height="12" rx="2" fill="#a0a0a0" />
</svg>